<svg width="262" height="63" viewBox="0 0 262 63" fill="none" xmlns="http://www.w3.org/2000/svg">
<path d="M16.2 61.32C13.256 61.32 10.5893 60.5947 8.2 59.144C5.85333 57.6933 3.99733 55.6027 2.632 52.872C1.26667 50.0987 0.584 46.8347 0.584 43.08C0.584 36.5947 1.97067 30.6 4.744 25.096C7.51733 19.5493 11.6133 15.112 17.032 11.784C22.4507 8.41333 28.9573 6.728 36.552 6.728C38.5147 6.728 40.6053 6.87733 42.824 7.176C45.0853 7.47466 47.1333 7.92266 48.968 8.52C50.1627 8.86133 50.76 9.71466 50.76 11.08C50.76 12.1893 50.3333 13.2347 49.48 14.216C48.6693 15.1973 47.7093 15.688 46.6 15.688C46.2587 15.688 46.0027 15.6667 45.832 15.624C43.6133 15.112 41.7147 14.7493 40.136 14.536C38.5573 14.28 36.8933 14.152 35.144 14.152C29.7253 14.152 25.1173 15.4747 21.32 18.12C17.5227 20.7227 14.6853 24.1787 12.808 28.488C10.9307 32.7973 9.992 37.448 9.992 42.44C9.992 46.0667 10.696 48.8827 12.104 50.888C13.5547 52.8507 15.432 53.832 17.736 53.832C20.3387 53.832 22.6213 52.7653 24.584 50.632C26.5467 48.4987 28.3387 45.0427 29.96 40.264C31.5813 35.4853 33.1813 29 34.76 20.808C35.016 19.6133 35.528 18.8027 36.296 18.376C37.064 17.9493 38.088 17.736 39.368 17.736C42.3973 17.736 43.912 18.7173 43.912 20.68C43.912 21.0213 43.848 21.448 43.72 21.96C42.6107 26.0987 41.5867 30.6853 40.648 35.72C39.752 40.712 39.304 44.5093 39.304 47.112C39.304 49.416 39.6453 51.1013 40.328 52.168C41.0107 53.192 42.056 53.704 43.464 53.704C44.8293 53.704 46.1307 53.256 47.368 52.36C48.6053 51.4213 50.1627 49.8427 52.04 47.624C52.552 47.0267 53.128 46.728 53.768 46.728C54.3227 46.728 54.7493 46.984 55.048 47.496C55.3893 48.008 55.56 48.712 55.56 49.608C55.56 51.272 55.1547 52.5947 54.344 53.576C52.2533 56.0933 50.2053 58.0133 48.2 59.336C46.1947 60.6587 43.7413 61.32 40.84 61.32C37.8533 61.32 35.4427 60.4667 33.608 58.76C31.7733 57.0107 30.6213 54.5573 30.152 51.4C26.9947 58.0133 22.344 61.32 16.2 61.32ZM84.4325 41.352C84.9872 41.352 85.4138 41.6293 85.7125 42.184C86.0112 42.7387 86.1605 43.4427 86.1605 44.296C86.1605 45.3627 86.0112 46.1947 85.7125 46.792C85.4138 47.3467 84.9445 47.7307 84.3045 47.944C81.7445 48.84 78.9285 49.352 75.8565 49.48C75.0032 53.0213 73.3818 55.88 70.9925 58.056C68.6458 60.232 66.0432 61.32 63.1845 61.32C58.8752 61.32 55.7392 59.6773 53.7765 56.392C51.8138 53.1067 50.8325 48.3493 50.8325 42.12C50.8325 36.616 51.5152 30.6427 52.8805 24.2C54.2458 17.7147 56.2298 12.2107 58.8325 7.688C61.4778 3.12266 64.6138 0.839996 68.2405 0.839996C70.2032 0.839996 71.7818 1.69333 72.9765 3.4C74.1712 5.064 74.7685 7.24 74.7685 9.928C74.7685 13.4267 74.1072 16.904 72.7845 20.36C71.4618 23.816 69.2645 27.4427 66.1925 31.24C69.0512 31.4533 71.3765 32.648 73.1685 34.824C74.9605 36.9573 76.0272 39.6027 76.3685 42.76C78.3738 42.632 80.7632 42.2053 83.5365 41.48C83.7925 41.3947 84.0912 41.352 84.4325 41.352ZM66.7685 7.176C65.9152 7.176 64.9765 8.456 63.9525 11.016C62.9712 13.5333 62.0538 16.968 61.2005 21.32C60.3472 25.672 59.7072 30.4293 59.2805 35.592C62.0965 30.4293 64.3365 25.8853 66.0005 21.96C67.7072 17.992 68.5605 14.472 68.5605 11.4C68.5605 10.0347 68.3898 8.98933 68.0485 8.264C67.7498 7.53866 67.3232 7.176 66.7685 7.176ZM63.4405 54.536C64.7632 54.536 65.9365 53.9813 66.9605 52.872C67.9845 51.7627 68.6672 50.1627 69.0085 48.072C67.6858 47.176 66.6618 46.0027 65.9365 44.552C65.2538 43.1013 64.9125 41.5653 64.9125 39.944C64.9125 39.3467 64.9978 38.536 65.1685 37.512H64.9765C63.2272 37.512 61.7552 38.3867 60.5605 40.136C59.4085 41.8427 58.8325 44.1467 58.8325 47.048C58.8325 49.48 59.2805 51.336 60.1765 52.616C61.1152 53.896 62.2032 54.536 63.4405 54.536ZM113.275 41.352C113.829 41.352 114.256 41.6293 114.555 42.184C114.853 42.7387 115.003 43.4427 115.003 44.296C115.003 46.344 114.384 47.56 113.147 47.944C110.587 48.84 107.771 49.352 104.699 49.48C103.888 53.064 102.288 55.944 99.8985 58.12C97.5092 60.2533 94.7998 61.32 91.7705 61.32C89.2105 61.32 87.0132 60.7013 85.1785 59.464C83.3865 58.2267 82.0212 56.584 81.0825 54.536C80.1438 52.488 79.6745 50.2693 79.6745 47.88C79.6745 44.6373 80.2932 41.7573 81.5305 39.24C82.7678 36.68 84.4745 34.696 86.6505 33.288C88.8265 31.8373 91.2372 31.112 93.8825 31.112C97.1252 31.112 99.7278 32.2427 101.691 34.504C103.696 36.7227 104.869 39.4747 105.211 42.76C107.216 42.632 109.605 42.2053 112.379 41.48C112.72 41.3947 113.019 41.352 113.275 41.352ZM92.2825 54.536C93.6478 54.536 94.8212 53.9813 95.8025 52.872C96.8265 51.7627 97.5092 50.1627 97.8505 48.072C96.5278 47.176 95.5038 46.0027 94.7785 44.552C94.0958 43.1013 93.7545 41.5653 93.7545 39.944C93.7545 39.2613 93.8185 38.5787 93.9465 37.896H93.6265C91.9198 37.896 90.4905 38.728 89.3385 40.392C88.2292 42.0133 87.6745 44.3173 87.6745 47.304C87.6745 49.6507 88.1225 51.4427 89.0185 52.68C89.9572 53.9173 91.0452 54.536 92.2825 54.536ZM116.038 61.32C114.118 61.32 112.539 60.4453 111.302 58.696C110.107 56.904 109.51 54.6853 109.51 52.04C109.51 48.84 109.723 45.9173 110.15 43.272C110.576 40.584 111.28 37.7467 112.262 34.76C112.688 33.48 113.286 32.5627 114.054 32.008C114.822 31.4533 116.038 31.176 117.702 31.176C118.64 31.176 119.28 31.3253 119.622 31.624C120.006 31.9227 120.198 32.3707 120.198 32.968C120.198 33.3093 119.963 34.4613 119.494 36.424C119.067 38.0027 118.726 39.432 118.47 40.712C117.616 45.192 117.19 48.1787 117.19 49.672C117.19 50.568 117.296 51.208 117.51 51.592C117.723 51.9333 118.064 52.104 118.534 52.104C119.174 52.104 119.963 51.464 120.902 50.184C121.883 48.904 122.907 46.9627 123.974 44.36C125.083 41.7573 126.15 38.5573 127.174 34.76C127.515 33.48 128.027 32.5627 128.71 32.008C129.435 31.4533 130.502 31.176 131.91 31.176C132.891 31.176 133.574 31.304 133.958 31.56C134.342 31.7733 134.534 32.2 134.534 32.84C134.534 33.9067 134 36.8293 132.934 41.608C131.739 47.0693 131.142 50.44 131.142 51.72C131.142 52.5307 131.312 53.1707 131.654 53.64C131.995 54.0667 132.443 54.28 132.998 54.28C133.851 54.28 134.854 53.768 136.006 52.744C137.2 51.6773 138.779 49.9707 140.742 47.624C141.254 47.0267 141.83 46.728 142.47 46.728C143.024 46.728 143.451 46.984 143.75 47.496C144.091 48.008 144.262 48.712 144.262 49.608C144.262 51.3147 143.856 52.6373 143.046 53.576C141.211 55.8373 139.227 57.6933 137.094 59.144C135.003 60.5947 132.614 61.32 129.926 61.32C127.878 61.32 126.363 60.5307 125.382 58.952C124.443 57.3733 123.974 55.1547 123.974 52.296C123.248 55.1973 122.16 57.4373 120.71 59.016C119.259 60.552 117.702 61.32 116.038 61.32ZM149.632 37.256C149.547 39.3893 149.504 41.0533 149.504 42.248C149.504 45.32 149.653 47.7307 149.952 49.48C150.293 51.1867 150.827 52.424 151.552 53.192C152.32 53.9173 153.365 54.28 154.688 54.28C155.371 54.28 156.181 54.0667 157.12 53.64C158.059 53.2133 158.912 52.6587 159.68 51.976C160.149 51.5493 160.619 51.336 161.088 51.336C161.6 51.336 162.005 51.6347 162.304 52.232C162.645 52.7867 162.816 53.4693 162.816 54.28C162.816 55.0907 162.645 55.88 162.304 56.648C162.005 57.416 161.536 58.056 160.896 58.568C158.677 60.4027 156.16 61.32 153.344 61.32C149.291 61.32 146.325 59.6347 144.448 56.264C142.571 52.8507 141.632 48.4133 141.632 42.952C141.632 41.0747 141.696 39.176 141.824 37.256H139.328C138.048 37.256 137.173 37.0213 136.704 36.552C136.277 36.0827 136.064 35.336 136.064 34.312C136.064 31.9227 137.024 30.728 138.944 30.728H142.592C143.317 26.0347 144.427 21.7467 145.92 17.864C147.413 13.9813 149.205 10.888 151.296 8.584C153.429 6.28 155.712 5.128 158.144 5.128C159.936 5.128 161.344 5.91733 162.368 7.496C163.392 9.07467 163.904 11.0587 163.904 13.448C163.904 20.0613 161.131 25.8213 155.584 30.728H162.752C163.435 30.728 163.925 30.8773 164.224 31.176C164.523 31.4747 164.672 32.0293 164.672 32.84C164.672 35.784 162.261 37.256 157.44 37.256H149.632ZM156.416 11.272C155.776 11.272 155.051 12.0827 154.24 13.704C153.472 15.2827 152.725 17.5013 152 20.36C151.317 23.176 150.741 26.312 150.272 29.768C152.789 27.592 154.667 25.16 155.904 22.472C157.184 19.7413 157.824 17.2667 157.824 15.048C157.824 12.5307 157.355 11.272 156.416 11.272ZM200.623 61.32C197.039 61.32 194.33 60.3387 192.495 58.376C190.66 56.3707 189.743 53.704 189.743 50.376C189.743 48.4987 190.02 46.216 190.575 43.528L194.543 25.224C194.628 24.8827 194.82 23.944 195.119 22.408C195.46 20.872 195.631 19.208 195.631 17.416C195.631 16.392 195.418 15.624 194.991 15.112C194.607 14.6 194.074 14.344 193.391 14.344C192.111 14.344 190.618 14.9627 188.911 16.2C187.204 17.3947 185.412 19.2507 183.535 21.768C182.938 22.5787 182.276 22.984 181.551 22.984C180.954 22.984 180.42 22.7067 179.951 22.152C179.524 21.5547 179.311 20.8933 179.311 20.168C179.311 18.8453 179.908 17.352 181.103 15.688C185.455 9.71466 190.554 6.728 196.399 6.728C199.002 6.728 201.028 7.51733 202.479 9.096C203.972 10.6747 204.719 13 204.719 16.072C204.719 18.248 204.57 20.2533 204.271 22.088C203.972 23.9227 203.46 26.4187 202.735 29.576L200.111 41.288C200.026 41.672 199.876 42.3547 199.663 43.336C199.45 44.3173 199.279 45.256 199.151 46.152C199.023 47.0053 198.959 47.8587 198.959 48.712C198.959 50.0773 199.343 51.1653 200.111 51.976C200.879 52.7867 201.967 53.192 203.375 53.192C205.935 53.192 208.516 51.8267 211.119 49.096C213.764 46.3653 216.196 41.9707 218.415 35.912C220.676 29.8107 222.426 22.024 223.663 12.552C223.962 10.376 224.388 8.86133 224.943 8.008C225.54 7.15466 226.671 6.728 228.335 6.728C229.828 6.728 230.938 7.176 231.663 8.072C232.388 8.968 232.751 10.4187 232.751 12.424C232.751 13.576 232.602 15.0907 232.303 16.968C232.047 18.8453 231.642 21.4693 231.087 24.84C229.935 31.368 229.018 37.3627 228.335 42.824C227.994 45.2987 227.823 47.1333 227.823 48.328C227.823 50.0773 228.207 51.4213 228.975 52.36C229.786 53.256 230.852 53.704 232.175 53.704C233.583 53.704 234.948 53.2347 236.271 52.296C237.636 51.3573 239.236 49.8 241.071 47.624C241.583 47.0267 242.159 46.728 242.799 46.728C243.354 46.728 243.78 46.984 244.079 47.496C244.42 48.008 244.591 48.712 244.591 49.608C244.591 51.272 244.186 52.5947 243.375 53.576C241.156 56.264 238.959 58.2267 236.783 59.464C234.607 60.7013 232.324 61.32 229.935 61.32C226.394 61.32 223.684 60.424 221.807 58.632C219.93 56.7973 218.991 54.4293 218.991 51.528C218.991 49.9067 219.332 46.7493 220.015 42.056C217.882 48.328 215.172 53.1067 211.887 56.392C208.644 59.6773 204.89 61.32 200.623 61.32ZM251.289 62.728C249.07 62.728 247.363 62.216 246.169 61.192C245.017 60.168 244.441 59.016 244.441 57.736C244.441 56.6267 244.846 55.6667 245.657 54.856C246.467 54.0453 247.662 53.64 249.241 53.64C249.795 53.64 250.435 53.704 251.161 53.832C251.929 53.9173 252.505 53.9813 252.889 54.024C252.846 52.9147 252.59 51.8693 252.121 50.888C251.694 49.9067 251.139 48.968 250.457 48.072C249.774 47.1333 249.134 46.3227 248.537 45.64C247.214 48.1573 245.891 50.248 244.569 51.912C243.289 53.576 241.881 55.1547 240.345 56.648C239.577 57.416 238.766 57.8 237.913 57.8C237.23 57.8 236.675 57.5653 236.248 57.096C235.822 56.584 235.608 55.9653 235.608 55.24C235.608 54.3867 235.907 53.5973 236.505 52.872L237.337 51.848C239.683 48.9467 241.454 46.5573 242.649 44.68C243.417 43.4427 244.185 41.9707 244.953 40.264C245.763 38.5573 246.809 36.232 248.089 33.288C248.899 31.4107 250.585 30.472 253.145 30.472C254.339 30.472 255.171 30.5787 255.641 30.792C256.11 31.0053 256.345 31.3467 256.345 31.816C256.345 32.072 256.259 32.4773 256.089 33.032C255.918 33.5867 255.683 34.1413 255.385 34.696C254.617 36.232 254.233 37.5333 254.233 38.6C254.233 39.24 254.446 39.944 254.873 40.712C255.342 41.48 256.046 42.44 256.985 43.592C258.35 45.384 259.374 46.92 260.057 48.2C260.782 49.4373 261.145 50.8027 261.145 52.296C261.145 54.088 260.718 55.7947 259.865 57.416C259.054 58.9947 257.902 60.2747 256.409 61.256C254.915 62.2373 253.209 62.728 251.289 62.728Z" fill="url(#paint0_linear_3989_5412)"/>
<defs>
<linearGradient id="paint0_linear_3989_5412" x1="83" y1="11" x2="116.5" y2="71.5" gradientUnits="userSpaceOnUse">
<stop stop-color="#001C43"/>
<stop offset="1" stop-color="#019BBD"/>
</linearGradient>
</defs>
</svg>
