<svg width="305" height="58" viewBox="0 0 305 58" fill="none" xmlns="http://www.w3.org/2000/svg">
<path d="M25.7733 56.32C20.6959 56.32 16.2799 55.4027 12.5253 53.568C8.77058 51.6907 5.89058 49.0453 3.88525 45.632C1.87992 42.2187 0.87725 38.2507 0.87725 33.728C0.87725 27.456 2.05058 21.888 4.39725 17.024C6.78658 12.16 10.0079 8.40533 14.0613 5.76C18.1146 3.072 22.6159 1.728 27.5653 1.728C32.1733 1.728 35.6719 2.92266 38.0613 5.312C40.4506 7.65866 41.6453 10.7733 41.6453 14.656C41.6453 17.2587 41.1759 19.3493 40.2373 20.928C39.3413 22.5067 38.0399 23.296 36.3333 23.296C35.1386 23.296 34.1999 23.0187 33.5173 22.464C32.8346 21.9093 32.4933 21.0987 32.4933 20.032C32.4933 19.648 32.5786 18.944 32.7493 17.92C33.0053 16.64 33.1333 15.616 33.1333 14.848C33.1333 10.9653 31.0639 9.024 26.9253 9.024C24.1093 9.024 21.4213 9.94133 18.8613 11.776C16.3013 13.6107 14.2319 16.32 12.6533 19.904C11.0746 23.4453 10.2853 27.6693 10.2853 32.576C10.2853 37.696 11.7146 41.664 14.5733 44.48C17.4319 47.2533 21.6559 48.64 27.2453 48.64C30.0186 48.64 32.8133 48.2987 35.6293 47.616C38.4879 46.8907 41.6453 45.8027 45.1013 44.352C45.7413 44.096 46.2746 43.968 46.7013 43.968C47.3839 43.968 47.8959 44.224 48.2373 44.736C48.5786 45.248 48.7493 45.9093 48.7493 46.72C48.7493 49.3227 47.3413 51.2427 44.5253 52.48C41.4959 53.8027 38.3386 54.784 35.0533 55.424C31.8106 56.0213 28.7173 56.32 25.7733 56.32ZM75.7433 36.352C76.2979 36.352 76.7246 36.6293 77.0233 37.184C77.3219 37.7387 77.4713 38.4427 77.4713 39.296C77.4713 41.344 76.8526 42.56 75.6153 42.944C73.0553 43.84 70.2393 44.352 67.1673 44.48C66.3566 48.064 64.7566 50.944 62.3673 53.12C59.9779 55.2533 57.2686 56.32 54.2393 56.32C51.6793 56.32 49.4819 55.7013 47.6473 54.464C45.8553 53.2267 44.4899 51.584 43.5513 49.536C42.6126 47.488 42.1432 45.2693 42.1432 42.88C42.1432 39.6373 42.7619 36.7573 43.9993 34.24C45.2366 31.68 46.9433 29.696 49.1193 28.288C51.2953 26.8373 53.7059 26.112 56.3513 26.112C59.5939 26.112 62.1966 27.2427 64.1593 29.504C66.1646 31.7227 67.3379 34.4747 67.6793 37.76C69.6846 37.632 72.0739 37.2053 74.8473 36.48C75.1886 36.3947 75.4873 36.352 75.7433 36.352ZM54.7513 49.536C56.1166 49.536 57.2899 48.9813 58.2713 47.872C59.2953 46.7627 59.9779 45.1627 60.3193 43.072C58.9966 42.176 57.9726 41.0027 57.2473 39.552C56.5646 38.1013 56.2233 36.5653 56.2233 34.944C56.2233 34.2613 56.2873 33.5787 56.4153 32.896H56.0953C54.3886 32.896 52.9593 33.728 51.8073 35.392C50.6979 37.0133 50.1433 39.3173 50.1433 42.304C50.1433 44.6507 50.5913 46.4427 51.4873 47.68C52.4259 48.9173 53.5139 49.536 54.7513 49.536ZM76.5223 56.32C74.9009 56.32 73.7489 55.4667 73.0663 53.76C72.4263 52.0533 72.1063 49.3227 72.1063 45.568C72.1063 40.0213 72.8956 34.752 74.4743 29.76C74.8583 28.5227 75.4769 27.6267 76.3303 27.072C77.2263 26.4747 78.4636 26.176 80.0423 26.176C80.8956 26.176 81.4929 26.2827 81.8343 26.496C82.1756 26.7093 82.3463 27.1147 82.3463 27.712C82.3463 28.3947 82.0263 29.9307 81.3863 32.32C80.9596 34.0267 80.6183 35.52 80.3623 36.8C80.1063 38.08 79.8929 39.6587 79.7223 41.536C81.1303 37.8667 82.7089 34.88 84.4583 32.576C86.2076 30.272 87.9143 28.6293 89.5783 27.648C91.2849 26.6667 92.8423 26.176 94.2503 26.176C97.0236 26.176 98.4103 27.5627 98.4103 30.336C98.4103 32 97.9409 35.008 97.0023 39.36C96.1916 43.072 95.7863 45.5253 95.7863 46.72C95.7863 48.4267 96.4049 49.28 97.6423 49.28C98.4956 49.28 99.4983 48.768 100.65 47.744C101.845 46.6773 103.424 44.9707 105.386 42.624C105.898 42.0267 106.474 41.728 107.114 41.728C107.669 41.728 108.096 41.984 108.394 42.496C108.736 43.008 108.906 43.712 108.906 44.608C108.906 46.3147 108.501 47.6373 107.69 48.576C105.856 50.8373 103.872 52.6933 101.738 54.144C99.6476 55.5947 97.2583 56.32 94.5703 56.32C92.3943 56.32 90.7516 55.7013 89.6423 54.464C88.5329 53.184 87.9783 51.3493 87.9783 48.96C87.9783 47.7653 88.2769 45.632 88.8743 42.56C89.4289 39.872 89.7063 38.016 89.7063 36.992C89.7063 36.3093 89.4716 35.968 89.0023 35.968C88.4476 35.968 87.6583 36.6933 86.6343 38.144C85.6529 39.552 84.6289 41.4293 83.5623 43.776C82.5383 46.1227 81.7063 48.5973 81.0663 51.2C80.5969 53.2053 80.0423 54.5707 79.4023 55.296C78.8049 55.9787 77.8449 56.32 76.5223 56.32ZM132.272 41.728C132.827 41.728 133.254 41.984 133.552 42.496C133.894 43.008 134.064 43.712 134.064 44.608C134.064 46.3147 133.659 47.6373 132.848 48.576C131.014 50.8373 129.008 52.6933 126.832 54.144C124.656 55.5947 122.16 56.32 119.344 56.32C110.64 56.32 106.288 50.1973 106.288 37.952C106.288 36.0747 106.352 34.176 106.48 32.256H103.984C102.704 32.256 101.83 32.0213 101.36 31.552C100.934 31.0827 100.72 30.336 100.72 29.312C100.72 26.9227 101.68 25.728 103.6 25.728H107.248C107.974 21.0347 109.083 16.7467 110.576 12.864C112.07 8.98133 113.862 5.888 115.952 3.584C118.086 1.28 120.368 0.127998 122.8 0.127998C124.592 0.127998 126 0.917332 127.024 2.496C128.048 4.07467 128.56 6.05866 128.56 8.448C128.56 15.0613 125.787 20.8213 120.24 25.728H127.408C128.091 25.728 128.582 25.8773 128.88 26.176C129.179 26.4747 129.328 27.0293 129.328 27.84C129.328 30.784 126.918 32.256 122.096 32.256H114.288C114.203 34.3893 114.16 36.0533 114.16 37.248C114.16 41.6853 114.672 44.8 115.696 46.592C116.763 48.384 118.427 49.28 120.688 49.28C122.523 49.28 124.144 48.7253 125.552 47.616C126.96 46.5067 128.624 44.8427 130.544 42.624C131.056 42.0267 131.632 41.728 132.272 41.728ZM121.072 6.272C120.432 6.272 119.707 7.08267 118.896 8.704C118.128 10.2827 117.382 12.5013 116.656 15.36C115.974 18.176 115.398 21.312 114.928 24.768C117.446 22.592 119.323 20.16 120.56 17.472C121.84 14.7413 122.48 12.2667 122.48 10.048C122.48 7.53067 122.011 6.272 121.072 6.272ZM136.725 56.32C134.08 56.32 131.968 55.36 130.389 53.44C128.811 51.52 128.021 49.0027 128.021 45.888C128.021 42.4747 128.811 39.2533 130.389 36.224C131.968 33.152 134.059 30.6987 136.661 28.864C139.307 26.9867 142.101 26.048 145.045 26.048C145.984 26.048 146.603 26.24 146.901 26.624C147.243 26.9653 147.52 27.6053 147.733 28.544C148.629 28.3733 149.568 28.288 150.549 28.288C152.64 28.288 153.685 29.0347 153.685 30.528C153.685 31.424 153.365 33.5573 152.725 36.928C151.744 41.8347 151.253 45.248 151.253 47.168C151.253 47.808 151.403 48.32 151.701 48.704C152.043 49.088 152.469 49.28 152.981 49.28C153.792 49.28 154.773 48.768 155.925 47.744C157.077 46.6773 158.635 44.9707 160.597 42.624C161.109 42.0267 161.685 41.728 162.325 41.728C162.88 41.728 163.307 41.984 163.605 42.496C163.947 43.008 164.117 43.712 164.117 44.608C164.117 46.3147 163.712 47.6373 162.901 48.576C161.152 50.752 159.296 52.5867 157.333 54.08C155.371 55.5733 153.472 56.32 151.637 56.32C150.229 56.32 148.928 55.8507 147.733 54.912C146.581 53.9307 145.707 52.608 145.109 50.944C142.891 54.528 140.096 56.32 136.725 56.32ZM139.029 49.856C139.968 49.856 140.864 49.3013 141.717 48.192C142.571 47.0827 143.189 45.6107 143.573 43.776L145.941 32C144.149 32.0427 142.485 32.7253 140.949 34.048C139.456 35.328 138.261 37.0347 137.365 39.168C136.469 41.3013 136.021 43.5627 136.021 45.952C136.021 47.2747 136.277 48.256 136.789 48.896C137.344 49.536 138.091 49.856 139.029 49.856ZM171.14 56.32C166.958 56.32 163.694 55.1467 161.348 52.8C159.044 50.4107 157.892 47.2747 157.892 43.392C157.892 39.936 158.574 36.9067 159.94 34.304C161.305 31.7013 163.076 29.696 165.252 28.288C167.428 26.88 169.71 26.176 172.1 26.176C174.446 26.176 176.26 26.88 177.54 28.288C178.862 29.6533 179.524 31.424 179.524 33.6C179.524 35.392 179.118 36.9067 178.308 38.144C177.54 39.3813 176.516 40 175.236 40C174.425 40 173.764 39.808 173.252 39.424C172.782 39.04 172.548 38.5067 172.548 37.824C172.548 37.5253 172.59 37.184 172.676 36.8C172.761 36.416 172.825 36.1387 172.868 35.968C173.081 35.328 173.188 34.7307 173.188 34.176C173.188 33.6213 173.038 33.1947 172.74 32.896C172.484 32.5973 172.1 32.448 171.588 32.448C170.606 32.448 169.689 32.896 168.836 33.792C167.982 34.6453 167.3 35.8187 166.788 37.312C166.276 38.8053 166.02 40.448 166.02 42.24C166.02 47.1893 168.174 49.664 172.484 49.664C174.233 49.664 176.11 49.088 178.116 47.936C180.164 46.7413 182.169 44.9707 184.132 42.624C184.644 42.0267 185.22 41.728 185.86 41.728C186.414 41.728 186.841 41.984 187.14 42.496C187.481 43.008 187.652 43.712 187.652 44.608C187.652 46.2293 187.246 47.552 186.436 48.576C184.43 51.0507 182.02 52.9707 179.204 54.336C176.43 55.6587 173.742 56.32 171.14 56.32ZM193.351 32.256C193.265 34.3893 193.223 36.0533 193.223 37.248C193.223 40.32 193.372 42.7307 193.671 44.48C194.012 46.1867 194.545 47.424 195.271 48.192C196.039 48.9173 197.084 49.28 198.407 49.28C199.089 49.28 199.9 49.0667 200.839 48.64C201.777 48.2133 202.631 47.6587 203.399 46.976C203.868 46.5493 204.337 46.336 204.807 46.336C205.319 46.336 205.724 46.6347 206.023 47.232C206.364 47.7867 206.535 48.4693 206.535 49.28C206.535 50.0907 206.364 50.88 206.023 51.648C205.724 52.416 205.255 53.056 204.615 53.568C202.396 55.4027 199.879 56.32 197.063 56.32C193.009 56.32 190.044 54.6347 188.167 51.264C186.289 47.8507 185.351 43.4133 185.351 37.952C185.351 36.0747 185.415 34.176 185.543 32.256H183.047C181.767 32.256 180.892 32.0213 180.423 31.552C179.996 31.0827 179.783 30.336 179.783 29.312C179.783 26.9227 180.743 25.728 182.663 25.728H186.311C187.036 21.0347 188.145 16.7467 189.639 12.864C191.132 8.98133 192.924 5.888 195.015 3.584C197.148 1.28 199.431 0.127998 201.863 0.127998C203.655 0.127998 205.063 0.917332 206.087 2.496C207.111 4.07467 207.623 6.05866 207.623 8.448C207.623 15.0613 204.849 20.8213 199.303 25.728H206.471C207.153 25.728 207.644 25.8773 207.943 26.176C208.241 26.4747 208.391 27.0293 208.391 27.84C208.391 30.784 205.98 32.256 201.159 32.256H193.351ZM200.135 6.272C199.495 6.272 198.769 7.08267 197.959 8.704C197.191 10.2827 196.444 12.5013 195.719 15.36C195.036 18.176 194.46 21.312 193.991 24.768C196.508 22.592 198.385 20.16 199.623 17.472C200.903 14.7413 201.543 12.2667 201.543 10.048C201.543 7.53067 201.073 6.272 200.135 6.272ZM244.342 56.32C240.758 56.32 238.048 55.3387 236.214 53.376C234.379 51.3707 233.462 48.704 233.462 45.376C233.462 43.4987 233.739 41.216 234.294 38.528L238.262 20.224C238.347 19.8827 238.539 18.944 238.838 17.408C239.179 15.872 239.35 14.208 239.35 12.416C239.35 11.392 239.136 10.624 238.71 10.112C238.326 9.6 237.792 9.344 237.11 9.344C235.83 9.344 234.336 9.96266 232.63 11.2C230.923 12.3947 229.131 14.2507 227.254 16.768C226.656 17.5787 225.995 17.984 225.27 17.984C224.672 17.984 224.139 17.7067 223.67 17.152C223.243 16.5547 223.03 15.8933 223.03 15.168C223.03 13.8453 223.627 12.352 224.822 10.688C229.174 4.71466 234.272 1.728 240.118 1.728C242.72 1.728 244.747 2.51733 246.198 4.096C247.691 5.67466 248.438 8 248.438 11.072C248.438 13.248 248.288 15.2533 247.99 17.088C247.691 18.9227 247.179 21.4187 246.454 24.576L243.83 36.288C243.744 36.672 243.595 37.3547 243.382 38.336C243.168 39.3173 242.998 40.256 242.87 41.152C242.742 42.0053 242.678 42.8587 242.678 43.712C242.678 45.0773 243.062 46.1653 243.83 46.976C244.598 47.7867 245.686 48.192 247.094 48.192C249.654 48.192 252.235 46.8267 254.838 44.096C257.483 41.3653 259.915 36.9707 262.134 30.912C264.395 24.8107 266.144 17.024 267.382 7.552C267.68 5.376 268.107 3.86133 268.662 3.008C269.259 2.15466 270.39 1.728 272.054 1.728C273.547 1.728 274.656 2.176 275.382 3.072C276.107 3.968 276.47 5.41866 276.47 7.424C276.47 8.576 276.32 10.0907 276.022 11.968C275.766 13.8453 275.36 16.4693 274.806 19.84C273.654 26.368 272.736 32.3627 272.054 37.824C271.712 40.2987 271.542 42.1333 271.542 43.328C271.542 45.0773 271.926 46.4213 272.694 47.36C273.504 48.256 274.571 48.704 275.894 48.704C277.302 48.704 278.667 48.2347 279.99 47.296C281.355 46.3573 282.955 44.8 284.79 42.624C285.302 42.0267 285.878 41.728 286.518 41.728C287.072 41.728 287.499 41.984 287.798 42.496C288.139 43.008 288.31 43.712 288.31 44.608C288.31 46.272 287.904 47.5947 287.094 48.576C284.875 51.264 282.678 53.2267 280.502 54.464C278.326 55.7013 276.043 56.32 273.654 56.32C270.112 56.32 267.403 55.424 265.526 53.632C263.648 51.7973 262.71 49.4293 262.71 46.528C262.71 44.9067 263.051 41.7493 263.734 37.056C261.6 43.328 258.891 48.1067 255.606 51.392C252.363 54.6773 248.608 56.32 244.342 56.32ZM295.007 57.728C292.789 57.728 291.082 57.216 289.887 56.192C288.735 55.168 288.159 54.016 288.159 52.736C288.159 51.6267 288.565 50.6667 289.375 49.856C290.186 49.0453 291.381 48.64 292.959 48.64C293.514 48.64 294.154 48.704 294.879 48.832C295.647 48.9173 296.223 48.9813 296.607 49.024C296.565 47.9147 296.309 46.8693 295.839 45.888C295.413 44.9067 294.858 43.968 294.175 43.072C293.493 42.1333 292.853 41.3227 292.255 40.64C290.933 43.1573 289.61 45.248 288.287 46.912C287.007 48.576 285.599 50.1547 284.063 51.648C283.295 52.416 282.485 52.8 281.631 52.8C280.949 52.8 280.394 52.5653 279.967 52.096C279.541 51.584 279.327 50.9653 279.327 50.24C279.327 49.3867 279.626 48.5973 280.223 47.872L281.055 46.848C283.402 43.9467 285.173 41.5573 286.367 39.68C287.135 38.4427 287.903 36.9707 288.671 35.264C289.482 33.5573 290.527 31.232 291.807 28.288C292.618 26.4107 294.303 25.472 296.863 25.472C298.058 25.472 298.89 25.5787 299.359 25.792C299.829 26.0053 300.063 26.3467 300.063 26.816C300.063 27.072 299.978 27.4773 299.807 28.032C299.637 28.5867 299.402 29.1413 299.103 29.696C298.335 31.232 297.951 32.5333 297.951 33.6C297.951 34.24 298.165 34.944 298.591 35.712C299.061 36.48 299.765 37.44 300.703 38.592C302.069 40.384 303.093 41.92 303.775 43.2C304.501 44.4373 304.863 45.8027 304.863 47.296C304.863 49.088 304.437 50.7947 303.583 52.416C302.773 53.9947 301.621 55.2747 300.127 56.256C298.634 57.2373 296.927 57.728 295.007 57.728Z" fill="url(#paint0_linear_3785_4061)"/>
<defs>
<linearGradient id="paint0_linear_3785_4061" x1="386" y1="-27" x2="103.933" y2="235.179" gradientUnits="userSpaceOnUse">
<stop offset="0.326137" stop-color="#019BBD"/>
<stop offset="0.59741" stop-color="#001C43"/>
<stop offset="0.752736" stop-color="#019BBD"/>
</linearGradient>
</defs>
</svg>
