<svg width="24" height="25" viewBox="0 0 24 25" fill="none" xmlns="http://www.w3.org/2000/svg">
<g clip-path="url(#clip0_3524_2638)">
<path d="M12 22.1192C11.8527 22.1187 11.7097 22.0695 11.5933 21.9792C7.88667 19.0992 5.33334 16.6192 3.54667 14.1725C1.26667 11.0458 0.74667 8.15915 2 5.59249C2.89334 3.75915 5.46 2.25915 8.46 3.13249C9.89036 3.54564 11.1383 4.43167 12 5.64582C12.8617 4.43167 14.1096 3.54564 15.54 3.13249C18.5333 2.27249 21.1067 3.75915 22 5.59249C23.2533 8.15915 22.7333 11.0458 20.4533 14.1725C18.6667 16.6192 16.1133 19.0992 12.4067 21.9792C12.2903 22.0695 12.1473 22.1187 12 22.1192ZM6.75334 4.21915C6.03951 4.19137 5.33158 4.35852 4.70557 4.70265C4.07955 5.04678 3.55907 5.55491 3.2 6.17249C2.16667 8.29249 2.63334 10.6525 4.62667 13.3792C6.74424 16.1123 9.22491 18.5436 12 20.6058C14.7747 18.5456 17.2553 16.1166 19.3733 13.3858C21.3733 10.6525 21.8333 8.29249 20.8 6.17915C20.1333 4.84582 18.1333 3.78582 15.9067 4.41249C15.1927 4.62349 14.5308 4.98163 13.9636 5.46387C13.3964 5.94611 12.9364 6.54176 12.6133 7.21249C12.5631 7.33476 12.4777 7.43934 12.3679 7.51294C12.2581 7.58654 12.1289 7.62584 11.9967 7.62584C11.8645 7.62584 11.7353 7.58654 11.6255 7.51294C11.5157 7.43934 11.4302 7.33476 11.38 7.21249C11.0593 6.54008 10.6002 5.94304 10.0326 5.4605C9.46504 4.97796 8.80191 4.62082 8.08667 4.41249C7.65334 4.28654 7.20459 4.22147 6.75334 4.21915Z" fill="black"/>
</g>
<defs>
<clipPath id="clip0_3524_2638">
<rect width="24" height="24" fill="white" transform="translate(0 0.5)"/>
</clipPath>
</defs>
</svg>
