<svg width="41" height="41" viewBox="0 0 41 41" fill="none" xmlns="http://www.w3.org/2000/svg">
<path d="M5.5 16.7496V14.8746C5.49993 14.0544 5.67924 13.2441 6.02534 12.5005C6.37145 11.7569 6.87599 11.098 7.5036 10.57C8.13121 10.0419 8.8667 9.6575 9.65854 9.44367C10.4504 9.22984 11.2794 9.19176 12.0875 9.33211C12.6135 7.50735 13.7185 5.90309 15.2359 4.76126C16.7534 3.61943 18.6009 3.00195 20.5 3.00195C22.3991 3.00195 24.2466 3.61943 25.7641 4.76126C27.2815 5.90309 28.3865 7.50735 28.9125 9.33211C29.7206 9.19176 30.5496 9.22984 31.3415 9.44367C32.1333 9.6575 32.8688 10.0419 33.4964 10.57C34.124 11.098 34.6285 11.7569 34.9747 12.5005C35.3208 13.2441 35.5001 14.0544 35.5 14.8746V16.7496C35.5005 20.5118 34.0873 24.1369 31.5404 26.906C28.9936 29.6751 25.4991 31.3861 21.75 31.6996V35.4996H19.25V31.6996C15.5009 31.3861 12.0064 29.6751 9.45956 26.906C6.91272 24.1369 5.49945 20.5118 5.5 16.7496ZM16.715 15.4971H24.285C24.1739 14.5065 24.3283 13.5042 24.7325 12.593C25.1367 11.6818 25.7761 10.8946 26.585 10.3121C26.2612 8.94152 25.4842 7.72038 24.3798 6.84649C23.2754 5.9726 21.9083 5.49715 20.5 5.49715C19.0917 5.49715 17.7246 5.9726 16.6202 6.84649C15.5158 7.72038 14.7388 8.94152 14.415 10.3121C15.2243 10.8948 15.8639 11.6824 16.2681 12.5941C16.6724 13.5058 16.8266 14.5086 16.715 15.4996V15.4971ZM13.8675 15.4971C13.9602 15.0856 13.9591 14.6585 13.8644 14.2474C13.7697 13.8363 13.5836 13.4518 13.3202 13.1224C13.0567 12.7929 12.7225 12.527 12.3422 12.3442C11.962 12.1615 11.5456 12.0666 11.1237 12.0666C10.7019 12.0666 10.2855 12.1615 9.90525 12.3442C9.52505 12.527 9.19083 12.7929 8.92734 13.1224C8.66385 13.4518 8.47785 13.8363 8.3831 14.2474C8.28836 14.6585 8.2873 15.0856 8.38 15.4971H13.8675ZM27.1325 15.4971H32.6175C32.7102 15.0856 32.7091 14.6585 32.6144 14.2474C32.5196 13.8363 32.3336 13.4518 32.0702 13.1224C31.8067 12.7929 31.4725 12.527 31.0923 12.3442C30.712 12.1615 30.2956 12.0666 29.8738 12.0666C29.4519 12.0666 29.0355 12.1615 28.6553 12.3442C28.275 12.527 27.9408 12.7929 27.6773 13.1224C27.4139 13.4518 27.2278 13.8363 27.1331 14.2474C27.0384 14.6585 27.0373 15.0856 27.13 15.4971H27.1325ZM20.5 29.2496C23.5992 29.2496 26.5879 28.0982 28.8861 26.019C31.1843 23.9397 32.6282 21.0809 32.9375 17.9971H8.0625C8.3718 21.0809 9.81565 23.9397 12.1139 26.019C14.4121 28.0982 17.4008 29.2496 20.5 29.2496ZM15.5 35.5021H25.5C25.8315 35.5021 26.1495 35.6338 26.3839 35.8682C26.6183 36.1026 26.75 36.4206 26.75 36.7521C26.75 37.0836 26.6183 37.4016 26.3839 37.636C26.1495 37.8704 25.8315 38.0021 25.5 38.0021H15.5C15.1685 38.0021 14.8505 37.8704 14.6161 37.636C14.3817 37.4016 14.25 37.0836 14.25 36.7521C14.25 36.4206 14.3817 36.1026 14.6161 35.8682C14.8505 35.6338 15.1685 35.5021 15.5 35.5021Z" fill="#F8F8F8"/>
</svg>
