<svg width="41" height="36" viewBox="0 0 41 36" fill="none" xmlns="http://www.w3.org/2000/svg">
<path d="M28 10.0625C27.6615 10.0625 27.3685 9.9388 27.1211 9.69141C26.8737 9.44401 26.75 9.15104 26.75 8.8125C26.75 8.14844 26.8737 7.51042 27.1211 6.89844C27.3685 6.28646 27.7331 5.74609 28.2148 5.27734L29.7578 3.71484C30.2526 3.22005 30.5 2.6276 30.5 1.9375C30.5 1.59896 30.6237 1.30599 30.8711 1.05859C31.1185 0.811198 31.4115 0.6875 31.75 0.6875C32.0885 0.6875 32.3815 0.811198 32.6289 1.05859C32.8763 1.30599 33 1.59896 33 1.9375C33 2.60156 32.8763 3.23958 32.6289 3.85156C32.3815 4.46354 32.0169 5.00391 31.5352 5.47266L29.9922 7.03516C29.4974 7.52995 29.25 8.1224 29.25 8.8125C29.25 9.15104 29.1263 9.44401 28.8789 9.69141C28.6315 9.9388 28.3385 10.0625 28 10.0625ZM20.5 10.0625C20.1615 10.0625 19.8685 9.9388 19.6211 9.69141C19.3737 9.44401 19.25 9.15104 19.25 8.8125C19.25 8.14844 19.3737 7.51042 19.6211 6.89844C19.8685 6.28646 20.2331 5.74609 20.7148 5.27734L22.2578 3.71484C22.7526 3.22005 23 2.6276 23 1.9375C23 1.59896 23.1237 1.30599 23.3711 1.05859C23.6185 0.811198 23.9115 0.6875 24.25 0.6875C24.5885 0.6875 24.8815 0.811198 25.1289 1.05859C25.3763 1.30599 25.5 1.59896 25.5 1.9375C25.5 2.60156 25.3763 3.23958 25.1289 3.85156C24.8815 4.46354 24.5169 5.00391 24.0352 5.47266L22.4922 7.03516C21.9974 7.52995 21.75 8.1224 21.75 8.8125C21.75 9.15104 21.6263 9.44401 21.3789 9.69141C21.1315 9.9388 20.8385 10.0625 20.5 10.0625ZM36.75 13.5C37.2708 13.5 37.7591 13.5977 38.2148 13.793C38.6706 13.9883 39.0677 14.2552 39.4062 14.5938C39.7448 14.9323 40.0117 15.3294 40.207 15.7852C40.4023 16.2409 40.5 16.7292 40.5 17.25V24.75C40.5 25.2708 40.4023 25.7591 40.207 26.2148C40.0117 26.6706 39.7448 27.0677 39.4062 27.4062C39.0677 27.7448 38.6706 28.0117 38.2148 28.207C37.7591 28.4023 37.2708 28.5 36.75 28.5H35.6367C35.6107 28.5911 35.5911 28.6758 35.5781 28.7539C35.5651 28.832 35.5391 28.9102 35.5 28.9883V29.75C35.5 30.6094 35.3372 31.4167 35.0117 32.1719C34.6862 32.9271 34.237 33.5911 33.6641 34.1641C33.0911 34.737 32.4271 35.1862 31.6719 35.5117C30.9167 35.8372 30.1094 36 29.25 36H21.75C20.7344 36 19.7969 35.7721 18.9375 35.3164C18.0781 34.8607 17.362 34.2552 16.7891 33.5H7.02344C6.16406 33.5 5.35677 33.3372 4.60156 33.0117C3.84635 32.6862 3.18229 32.2435 2.60938 31.6836C2.03646 31.1237 1.58724 30.4596 1.26172 29.6914C0.936198 28.9232 0.773438 28.1094 0.773438 27.25V26H5.77344C5.77344 24.9714 5.96875 24.0013 6.35938 23.0898C6.75 22.1784 7.29036 21.3841 7.98047 20.707C8.67057 20.0299 9.46484 19.4896 10.3633 19.0859C11.2617 18.6823 12.2318 18.487 13.2734 18.5C13.6641 18.5 14.0417 18.5326 14.4062 18.5977C14.7708 18.6628 15.1354 18.7539 15.5 18.8711V11H35.5V13.5H36.75ZM13.2734 21C12.5833 21 11.9388 21.1302 11.3398 21.3906C10.7409 21.651 10.207 22.0091 9.73828 22.4648C9.26953 22.9206 8.91146 23.4479 8.66406 24.0469C8.41667 24.6458 8.28646 25.2969 8.27344 26H15.5V21.5469C15.1615 21.3776 14.8099 21.2474 14.4453 21.1562C14.0807 21.0651 13.6901 21.013 13.2734 21ZM7.02344 31H15.6367C15.5456 30.6224 15.5 30.2057 15.5 29.75V28.5H3.48828C3.61849 28.8646 3.80078 29.1966 4.03516 29.4961C4.26953 29.7956 4.53646 30.0625 4.83594 30.2969C5.13542 30.5312 5.47396 30.7005 5.85156 30.8047C6.22917 30.9089 6.61979 30.974 7.02344 31ZM16.0664 32.3086V32.3281L16.0859 32.3672V32.3477L16.0664 32.3086ZM33 29.75V13.5H18V29.75C18 30.2708 18.0977 30.7591 18.293 31.2148C18.4883 31.6706 18.7552 32.0677 19.0938 32.4062C19.4323 32.7448 19.8294 33.0117 20.2852 33.207C20.7409 33.4023 21.2292 33.5 21.75 33.5H29.25C29.7708 33.5 30.2591 33.4023 30.7148 33.207C31.1706 33.0117 31.5677 32.7448 31.9062 32.4062C32.2448 32.0677 32.5117 31.6706 32.707 31.2148C32.9023 30.7591 33 30.2708 33 29.75ZM38 24.75V17.25C38 16.9115 37.8763 16.6185 37.6289 16.3711C37.3815 16.1237 37.0885 16 36.75 16H35.5V26H36.75C37.0885 26 37.3815 25.8763 37.6289 25.6289C37.8763 25.3815 38 25.0885 38 24.75Z" fill="white"/>
</svg>
