<svg width="41" height="41" viewBox="0 0 41 41" fill="none" xmlns="http://www.w3.org/2000/svg">
<path d="M9.56666 13.7673L10.4333 12.884C11.4 11.9173 13 11.9173 14 12.9507L14.0333 13.0007C14.85 13.834 15.9333 14.234 17.1167 14.3507C18.7333 14.5007 20.3 15.3673 21.3333 16.934C22.4667 18.734 22.45 21.134 21.2667 22.9173C20.8203 23.6231 20.2201 24.2188 19.511 24.6598C18.8018 25.1008 18.0021 25.3757 17.1717 25.4639C16.3413 25.552 15.5017 25.4512 14.7158 25.169C13.9298 24.8867 13.2179 24.4303 12.6333 23.834C11.7 22.9173 11.1667 21.734 11.0333 20.5007C10.9 19.284 10.4167 18.134 9.56666 17.284C8.59999 16.334 8.59999 14.734 9.56666 13.7673ZM16.5667 27.1673C14.6167 27.1673 12.8 26.4173 11.45 25.034C10.2833 23.834 9.54999 22.334 9.36666 20.7007C9.31666 20.2007 9.16666 19.5507 8.76666 18.9507C7.76666 20.334 7.16666 22.0007 7.16666 23.834C7.16666 26.5673 8.49999 28.984 10.55 30.5007H32.1667V28.834C32.1667 22.834 28.1833 17.7507 22.7333 16.084C24.2167 18.4173 24.1833 21.534 22.6667 23.834C21.3333 25.9173 19.0333 27.1673 16.5667 27.1673ZM25.1333 13.1007H27.25C28.7 13.1007 29.9667 14.1173 29.9667 15.934V17.1673H32.05V15.5007C32.05 13.0007 29.8333 11.1007 27.25 11.1007H25.1333C23.75 11.1007 22.5667 9.73398 22.5667 8.33398C22.5667 6.93398 23.75 5.90065 25.1333 5.90065V3.83398C22.5667 3.83398 20.5 5.90065 20.5 8.46732C20.5 11.034 22.5667 13.1007 25.1333 13.1007ZM7.99999 13.084C8.09999 12.9173 8.23333 12.7507 8.38333 12.584L9.24999 11.7173C9.39999 11.5673 9.56666 11.4507 9.73333 11.334L7.38333 8.95065C7.61666 8.50065 7.53333 7.91732 7.16666 7.53398C6.92799 7.30166 6.60807 7.17166 6.27499 7.17166C5.94192 7.17166 5.622 7.30166 5.38333 7.53398C5.14999 7.76732 5.03333 8.05065 5.01666 8.35065C4.71666 8.36732 4.43333 8.48398 4.19999 8.71732C3.71666 9.20065 3.71666 10.0007 4.19999 10.5007C4.58333 10.8673 5.14999 10.9507 5.61666 10.7173L7.99999 13.084ZM31.15 7.81732C32 6.96732 32.5333 5.81732 32.5333 4.53398H30.45C30.45 5.91732 29.2833 7.08398 27.9 7.08398V9.15065C31 9.15065 33.4333 11.684 33.4333 14.784V18.834H35.5V14.784C35.5083 13.3302 35.104 11.9038 34.334 10.6706C33.564 9.43744 32.4599 8.44803 31.15 7.81732ZM8.83333 35.5007H32.1667C34.0167 35.5007 35.5 34.0173 35.5 32.1673H5.49999C5.49999 33.0514 5.85118 33.8992 6.4763 34.5243C7.10143 35.1495 7.94927 35.5007 8.83333 35.5007Z" fill="#F8F8F8"/>
</svg>
