<svg width="41" height="41" viewBox="0 0 41 41" fill="none" xmlns="http://www.w3.org/2000/svg">
<path d="M20.3333 3.83398C13.8333 3.83398 8.66667 9.50065 8.83334 16.0007C9 20.334 11.5 24.0007 15 25.834C17.3333 27.0007 18.8333 29.334 18.8333 31.834V32.1673C18.8333 35.0007 21 37.1673 23.8333 37.1673C30.5 37.1673 32.1667 28.834 32.1667 15.5007C32.1667 15.5007 32.1667 3.83398 20.3333 3.83398ZM23.8333 33.834C22.8333 33.834 22.1667 33.1673 22.1667 32.1673V31.834C22.1667 28.1673 20 24.6673 16.6667 22.834C14 21.5007 12.3333 18.834 12.1667 15.834C12.1667 13.6673 13 11.334 14.5 9.66732C16 8.00065 18.1667 7.16732 20.1667 7.16732C28.3333 7.16732 28.8333 14.1673 28.8333 15.5007C28.8333 32.0007 26 33.834 23.8333 33.834ZM26.8333 13.1673L14.3333 17.6673C14 17.1673 13.8333 16.5007 13.8333 15.6673C13.8333 14.5007 14.1667 13.5007 14.6667 12.334L23.3333 9.16732C25.3333 10.1673 26.3333 11.6673 26.8333 13.1673ZM22 25.6673L26.6667 24.0007C26.5 26.5007 26 28.334 25.6667 29.5007L23.5 30.334C23.5 28.6673 23 27.1673 22 25.6673ZM27.1667 15.834C27.1667 17.834 27.1667 19.6673 27 21.1673L20.3333 23.6673C19.5 22.834 18.5 22.0007 17.3333 21.5007C16.6667 21.1673 16 20.6673 15.5 20.1673L27.1667 15.834Z" fill="#F8F8F8"/>
</svg>
