<svg width="41" height="41" viewBox="0 0 41 41" fill="none" xmlns="http://www.w3.org/2000/svg">
<path d="M14.346 10.1657C14.9615 9.02788 15.8803 8.08286 17.0004 7.43557C18.1205 6.78828 19.398 6.46404 20.6912 6.49884C21.9844 6.53365 23.2427 6.92614 24.3263 7.63274C25.41 8.33934 26.2766 9.33241 26.83 10.5017C25.3732 10.5345 23.9575 10.991 22.7559 11.8154C21.5543 12.6398 20.6189 13.7963 20.064 15.1437C19.5516 14.2913 18.9386 13.5037 18.238 12.7977C17.1113 11.6913 15.7924 10.7994 14.346 10.1657ZM34.484 18.4997C34.4947 18.3344 34.5 18.1677 34.5 17.9997C34.5007 16.3746 33.9735 14.7933 32.9978 13.4937C32.0221 12.1941 30.6507 11.2466 29.09 10.7937C28.551 9.08593 27.5149 7.57768 26.1142 6.46176C24.7136 5.34584 23.0119 4.67295 21.2269 4.5291C19.4418 4.38525 17.6544 4.77697 16.0931 5.65419C14.5318 6.53142 13.2676 7.85429 12.462 9.45372C11.6665 9.20605 10.8562 9.00833 10.036 8.86172C8.64874 8.6125 7.24149 8.49132 5.83203 8.49972L5.46403 8.51172H5.45603C5.21138 8.52601 4.9805 8.62963 4.80722 8.80291C4.63393 8.9762 4.53031 9.20708 4.51603 9.45172V9.45372L4.50003 9.82972C4.49059 11.2411 4.6111 12.6504 4.86003 14.0397C5.10603 15.4037 5.52203 16.9677 6.23003 18.4997H5.50003C5.23481 18.4997 4.98045 18.6051 4.79292 18.7926C4.60538 18.9802 4.50003 19.2345 4.50003 19.4997V20.4997C4.50003 21.8797 4.67603 23.2197 5.00403 24.4997H35.996C36.332 23.193 36.5014 21.849 36.5 20.4997V19.4997C36.5 19.2345 36.3947 18.9802 36.2071 18.7926C36.0196 18.6051 35.7652 18.4997 35.5 18.4997H34.484ZM8.46803 18.4997C7.60003 16.9357 7.10403 15.2217 6.82803 13.6837C6.63939 12.6335 6.53108 11.5704 6.50403 10.5037L6.73203 10.5117C7.47603 10.5377 8.51203 10.6177 9.68003 10.8297C12.04 11.2557 14.812 12.1997 16.824 14.2117C18.056 15.4437 18.89 16.9637 19.45 18.4997H15.916L12.208 14.7917C12.115 14.6989 12.0047 14.6253 11.8833 14.5751C11.7618 14.5249 11.6317 14.4991 11.5003 14.4992C11.3689 14.4993 11.2388 14.5252 11.1175 14.5756C10.9961 14.626 10.8859 14.6997 10.793 14.7927C10.7002 14.8857 10.6266 14.9961 10.5764 15.1175C10.5262 15.2389 10.5004 15.369 10.5005 15.5004C10.5006 15.6318 10.5265 15.7619 10.5769 15.8833C10.6273 16.0046 10.701 16.1149 10.794 16.2077L13.088 18.4997H8.46803ZM21.564 18.4997L21.51 18.3377C21.4665 17.5832 21.579 16.8278 21.8404 16.1187C22.1018 15.4095 22.5065 14.7619 23.0294 14.2161C23.5522 13.6704 24.1819 13.2383 24.8792 12.9467C25.5765 12.6552 26.3264 12.5104 27.0821 12.5216C27.8378 12.5328 28.5831 12.6996 29.2715 13.0116C29.9598 13.3236 30.5765 13.7741 31.083 14.3351C31.5895 14.896 31.975 15.5553 32.2154 16.2719C32.4557 16.9884 32.5458 17.7468 32.48 18.4997H21.564ZM20.5 36.4997C17.3123 36.5004 14.197 35.5489 11.5536 33.7672C8.9103 31.9855 6.85943 29.4548 5.66403 26.4997H35.338C34.1425 29.4552 32.0913 31.9861 29.4476 33.7678C26.8038 35.5495 23.6881 36.5008 20.5 36.4997Z" fill="#F8F8F8"/>
</svg>
